<?xml version="1.0"?>
<svg version="1.1" xmlns="http://www.w3.org/2000/svg" width="400px" height="200px" style=""><path fill="#062648" d="M13.716,123.322l2.418,0l0-16.497q0-3.276,2.496-5.772t5.772-2.496q3.198,0,5.772,2.496q2.457,2.457,2.457,5.772l0,16.497l2.496,0l0-16.497q0-3.354,2.496-5.772q2.496-2.496,5.733-2.496q3.276,0,5.772,2.496t2.496,5.772l0,16.497l2.418,0l0-16.497q0-4.446-3.12-7.566t-7.566-3.12q-2.925,0-5.499,1.599q-2.613,1.638-3.744,4.173q-1.521-2.613-4.095-4.173q-2.691-1.599-5.616-1.599q-4.407,0-7.527,3.12q-3.159,3.159-3.159,7.566l0,16.497z M70.49376,95.944q-4.368,0-7.332,3.159q-2.925,3.12-2.925,7.605l0,16.692l2.457,0l0-12.246l15.678,0l0,12.246l2.457,0l0-16.692q0-4.485-2.925-7.605q-3.042-3.159-7.41-3.159z M78.37176,108.736l-15.678,0l0-2.028q0-3.354,2.262-5.811q2.301-2.496,5.538-2.496t5.616,2.496q2.262,2.457,2.262,5.811l0,2.028z M93.06852,98.947l14.703,0l0-2.964l-14.703,0q-2.886,0-4.836,2.262q-1.989,2.301-1.989,5.577q0,2.964,1.989,5.148q1.95,2.223,4.836,2.223l3.9,0l3.978,0q1.755,0,3.12,1.482q1.287,1.56,1.287,3.393q0,2.184-1.2675,3.549t-3.1395,1.365l-14.703,0l0,2.418l14.703,0q2.925,0,4.875-2.028t1.95-5.304q0-2.964-1.95-5.148q-1.989-2.184-4.875-2.184l-3.978,0l-3.9,0q-1.794,0-3.081-1.56q-1.326-1.443-1.326-3.354q0-2.184,1.2675-3.5295t3.1395-1.3455z M133.31028,96.1l-21.138,0l0,2.379l9.594,0l0,24.999l2.418,0l0-24.999l9.126,0l0-2.379z M140.48004,115.912q0-1.872,1.326-3.393q1.326-1.599,3.198-1.599l0.507,0l7.293,0l0-2.418l-7.293,0l-0.507,0q-1.989-0.39-3.2565-1.716t-1.2675-3.159q0-2.301,1.3455-3.6465t3.6855-1.3455l13.26,0l0-2.457l-13.26,0q-3.003,0-5.226,2.223q-2.223,2.145-2.223,5.226q0,1.95,0.741,3.549t2.184,2.301q-1.443,1.053-2.184,2.769t-0.741,3.666q0,3.042,2.223,5.187q2.262,2.262,5.226,2.262l13.26,0l0-2.574l-13.26,0q-2.34,0-3.6855-1.326t-1.3455-3.549z M175.5738,109.711l2.925,0q2.964,0,4.914-1.95t1.95-4.914q0-2.613-1.95-4.68q-2.067-2.145-4.914-2.145l-12.207,0l-2.418,0l0,27.378l2.418,0l0-13.689l6.357,0l8.307,13.689l2.925,0z M166.2918,107.293l0-8.814l12.207,0q1.794,0,3.159,1.287q1.287,1.287,1.287,3.081q0,1.872-1.287,3.159q-1.365,1.287-3.159,1.287l-12.207,0z M204.65532,123.439l2.457,0l0-27.417l-2.457,0l0,27.417z M213.54108,123.322l2.418,0l0-16.497q0-3.276,2.496-5.772t5.772-2.496q3.198,0,5.772,2.496q2.457,2.457,2.457,5.772l0,16.497l2.496,0l0-16.497q0-3.354,2.496-5.772q2.496-2.496,5.733-2.496q3.276,0,5.772,2.496t2.496,5.772l0,16.497l2.418,0l0-16.497q0-4.446-3.12-7.566t-7.566-3.12q-2.925,0-5.499,1.599q-2.613,1.638-3.744,4.173q-1.521-2.613-4.095-4.173q-2.691-1.599-5.616-1.599q-4.407,0-7.527,3.12q-3.159,3.159-3.159,7.566l0,16.497z M270.12384,95.944q-4.368,0-7.332,3.159q-2.925,3.12-2.925,7.605l0,16.692l2.457,0l0-12.246l15.678,0l0,12.246l2.457,0l0-16.692q0-4.485-2.925-7.605q-3.042-3.159-7.41-3.159z M278.00184,108.736l-15.678,0l0-2.028q0-3.354,2.262-5.811q2.301-2.496,5.538-2.496t5.616,2.496q2.262,2.457,2.262,5.811l0,2.028z M299.4066,98.44l7.527,0l0-2.457l-7.527,0q-5.616,0-9.516,3.978q-3.939,4.017-3.939,10.023q0,5.577,3.939,9.516t9.516,3.939l4.992,0l2.535,0l0-2.496l0-12.48l-2.535,0l-5.967,0l0,2.496l5.967,0l0,9.984l-4.992,0q-4.446,0-7.683-3.237t-3.237-7.722q0-4.875,3.237-8.229q3.198-3.315,7.683-3.315z M315.00036,115.912q0-1.872,1.326-3.393q1.326-1.599,3.198-1.599l0.507,0l7.293,0l0-2.418l-7.293,0l-0.507,0q-1.989-0.39-3.2565-1.716t-1.2675-3.159q0-2.301,1.3455-3.6465t3.6855-1.3455l13.26,0l0-2.457l-13.26,0q-3.003,0-5.226,2.223q-2.223,2.145-2.223,5.226q0,1.95,0.741,3.549t2.184,2.301q-1.443,1.053-2.184,2.769t-0.741,3.666q0,3.042,2.223,5.187q2.262,2.262,5.226,2.262l13.26,0l0-2.574l-13.26,0q-2.34,0-3.6855-1.326t-1.3455-3.549z M350.09412,109.711l2.925,0q2.964,0,4.914-1.95t1.95-4.914q0-2.613-1.95-4.68q-2.067-2.145-4.914-2.145l-12.207,0l-2.418,0l0,27.378l2.418,0l0-13.689l6.357,0l8.307,13.689l2.925,0z M340.81212,107.293l0-8.814l12.207,0q1.794,0,3.159,1.287q1.287,1.287,1.287,3.081q0,1.872-1.287,3.159q-1.365,1.287-3.159,1.287l-12.207,0z M386.24088,96.1l-2.418,0l0,2.886q0,3.588-2.496,6.006q-2.457,2.34-5.85,2.34q-3.627,0-5.967-2.34t-2.34-6.006l0-2.886l-2.418,0l0,2.886q0,4.368,2.652,7.41q2.613,3.081,6.63,3.354l0,13.689l2.457,0l0-13.689q4.095-0.312,6.903-3.354q2.847-3.042,2.847-7.41l0-2.886z"/><path fill="#" d=""/></svg>
